<?xml version="1.0" encoding="utf-8"?>
<!-- Generator: Adobe Illustrator 18.1.1, SVG Export Plug-In . SVG Version: 6.00 Build 0)  -->
<!DOCTYPE svg PUBLIC "-//W3C//DTD SVG 1.1//EN" "http://www.w3.org/Graphics/SVG/1.1/DTD/svg11.dtd">
<svg version="1.1" id="Laag_1" xmlns="http://www.w3.org/2000/svg" xmlns:xlink="http://www.w3.org/1999/xlink" x="0px" y="0px"
	 viewBox="0 0 201.4 84.3" style="enable-background:new 0 0 201.4 84.3;" xml:space="preserve">
<style type="text/css">
	.st0{fill:#FF750F;}
	.st1{fill:#289A21;}
</style>
<g>
	<path class="st0" d="M199.5,76.8l-3.3,0.4c-9,2.4-19.2,2.3-28.8,2.2c-63-0.6-100.7-6.2-163.8-1.3c-1.8,0-3.6,2.4-3.6,3.7
		c0,1.2,1.8,2.4,3.6,2.4c10.8-2.4,14.3-1.5,25.3-2.9c63.2-3.7,107.5,6.6,170.7,1.7c1.8,0,1.8-2.4,1.8-3.7
		C201.4,79.3,201.3,77.2,199.5,76.8"/>
</g>
<g>
	<path class="st1" d="M60,52.4c-0.8-4.6-2.8-7-7.2-7c-5.7,0-7.4,4.5-7.5,7H60z M45.3,58.1c0.3,5.7,3.1,8.3,8.1,8.3
		c3.6,0,6.6-2.2,7.1-4.3h8c-2.5,7.8-8,11.1-15.4,11.1c-10.4,0-16.8-7.1-16.8-17.3c0-9.9,6.8-17.4,16.8-17.4c11.2,0,16.6,9.4,16,19.6
		H45.3z"/>
</g>
<rect x="72.7" y="26.9" class="st1" width="9" height="45.5"/>
<polygon class="st1" points="106.4,72.4 96.3,72.4 85,39.5 94.5,39.5 101.5,62 101.6,62 108.5,39.5 117.5,39.5 "/>
<rect x="136.7" y="26.9" class="st1" width="9" height="45.5"/>
<rect x="153.1" y="26.9" class="st1" width="9" height="45.5"/>
<g>
	<path class="st1" d="M178.4,63.1c-1.1-1.6-1.7-3.9-1.7-6.8c0-2.6,0.5-4.8,1.4-6.7c1.1-2.1,2.6-3.2,4.6-3.2c1.9,0,3.4,0.8,4.5,2.3
		c1.2,1.7,1.8,4,1.8,6.9c0,3-0.6,5.4-1.8,7.2c-1.1,1.7-2.6,2.5-4.5,2.5C180.9,65.3,179.5,64.6,178.4,63.1 M170.6,44.5
		c-2.8,3.2-4.2,7.3-4.2,12c0,4.6,1.3,8.4,3.9,11.3c2.6,2.9,6,4.4,10.1,4.4c3.4,0,6.3-1.1,8.8-3.2v2.5h9.8V39.7h-9.8v2.9
		c-2.3-2-4.9-3-7.7-3C177,39.6,173.4,41.2,170.6,44.5"/>
</g>
<rect x="121.5" y="39.5" class="st1" width="9" height="32.9"/>
<rect x="121.5" y="26.9" class="st0" width="9" height="10"/>
<path class="st1" d="M14.2,52.8c2.4,0,4.3,0.3,5.4,0.9c1.9,0.9,2.8,2.5,2.8,5c0,2-0.7,3.5-2.2,4.7c-1.2,0.9-3.2,1.4-6,1.4h-2.4v-12
	H14.2z M13.8,35.1c3.2,0,4.3,0.3,4.7,0.5c1.4,0.7,2.1,1.9,2.1,3.6c0,1.7-0.6,3.1-2,4.2c-1.4,1.1-3.4,1.7-6.1,1.7h-0.7V35.1H13.8z
	 M1,27.4v45h13.4c5.3,0,9.2-0.7,12-2.1c4.8-2.5,7.3-6.3,7.3-11.4c0-4.9-2.2-8.4-6.4-10.5c-0.6-0.3-1.3-0.5-2-0.7
	c3.8-2.2,5.8-5.4,5.8-9.7c0-3.9-1.7-6.8-4.9-8.7c-2.2-1.3-5.9-1.9-11.2-1.9H1z"/>
<path class="st0" d="M145.5,7.6c-3.4-1.3-4.6-0.7-6.9,0.3c-2.4,1-49.1,27-49.1,27c-1.1,0.6-2.1,0.5-3-0.1c-0.6-0.5-1-1.1-1.2-1.9
	c-0.2-0.8,0-1.5,0.4-2.2c0.3-0.4,0.7-0.7,1.1-0.9l50.7-28.2c3-1.7,3.4-1.7,4.9-1.7c1.4,0,2.8,0.6,4.9,1.7l51.9,28.3
	c0.5,0.2,0.8,0.5,1.1,0.9c0.5,0.6,0.6,1.4,0.4,2.2c-0.2,0.8-0.6,1.5-1.2,1.9c-0.9,0.7-1.9,0.7-3,0.1c0,0-47.9-26.2-50.3-27.2
	L145.5,7.6z"/>
</svg>
